<?xml version="1.0" standalone="no"?>
<!DOCTYPE svg PUBLIC "-//W3C//DTD SVG 20010904//EN"
 "http://www.w3.org/TR/2001/REC-SVG-20010904/DTD/svg10.dtd">
<svg version="1.0" xmlns="http://www.w3.org/2000/svg"
 width="1120.000000pt" height="1120.000000pt" viewBox="0 0 1120.000000 1120.000000"
 preserveAspectRatio="xMidYMid meet">
<metadata>
Created by potrace 1.11, written by Peter Selinger 2001-2013
</metadata>
<g transform="translate(0.000000,1120.000000) scale(0.100000,-0.100000)"
fill="#000000" stroke="none">
<path d="M0 9605 c0 -776 0 -795 19 -805 13 -7 22 -7 26 0 4 6 13 7 24 1 10
-6 23 -6 31 -1 8 5 19 5 25 0 6 -5 17 -5 25 0 7 4 24 4 37 -1 14 -5 23 -5 23
1 0 6 9 6 25 0 15 -6 27 -6 30 0 4 7 60 -5 60 -12 0 -1 10 4 22 10 14 8 24 9
28 2 4 -7 12 -7 25 0 13 7 21 7 25 0 4 -6 13 -7 23 -1 17 8 49 7 59 -3 3 -3
14 -1 24 4 12 7 20 7 24 0 4 -7 12 -7 25 0 11 6 21 6 25 1 3 -6 17 -6 35 -1
18 5 32 5 35 -1 4 -5 14 -5 25 1 13 7 21 7 25 0 4 -7 12 -7 24 0 10 5 21 7 24
4 10 -10 42 -11 59 -3 10 6 19 5 23 -1 4 -7 12 -7 25 0 13 7 21 7 25 0 4 -6
13 -7 23 -1 9 5 22 9 27 9 6 0 18 -4 27 -9 10 -6 19 -5 23 1 4 6 13 7 24 1 10
-6 23 -6 31 -1 8 5 19 5 25 0 6 -5 17 -5 25 0 7 4 24 4 37 -1 14 -5 23 -5 23
1 0 6 9 6 25 0 15 -6 27 -6 30 0 5 8 33 2 55 -10 3 -2 15 2 27 8 14 8 24 9 28
2 4 -7 12 -7 25 0 13 7 21 7 25 0 4 -6 13 -7 23 -1 17 8 49 7 59 -3 3 -3 14
-1 24 4 12 7 20 7 24 0 4 -7 12 -7 25 0 11 6 21 6 25 1 3 -6 17 -6 35 -1 18 5
32 5 35 -1 4 -5 14 -5 25 1 13 7 21 7 25 0 4 -7 12 -7 24 0 10 5 21 7 24 4 10
-10 42 -11 59 -3 10 6 19 5 23 -1 4 -7 12 -7 25 0 13 7 21 7 25 0 4 -6 13 -7
23 -1 9 5 22 9 27 9 6 0 18 -4 27 -9 10 -6 19 -5 23 1 4 6 13 7 24 1 10 -6 23
-6 31 -1 8 5 19 5 25 0 6 -5 17 -5 25 0 7 4 24 4 37 -1 14 -5 23 -5 23 1 0 6
9 6 25 0 15 -6 27 -6 30 0 3 6 16 5 33 -1 29 -11 29 -11 54 2 10 6 19 5 23 -1
4 -7 12 -7 25 0 13 7 21 7 25 0 4 -6 13 -7 23 -1 17 8 49 7 59 -3 3 -3 14 -1
24 4 12 7 20 7 24 0 4 -7 12 -7 25 0 11 6 21 6 25 1 3 -6 17 -6 35 -1 18 5 32
5 35 -1 4 -5 14 -5 25 1 13 7 21 7 25 0 4 -7 12 -7 24 0 10 5 21 7 24 4 10
-10 42 -11 59 -3 10 6 19 5 23 -1 4 -7 12 -7 25 0 13 7 21 7 25 0 4 -7 14 -6
28 2 12 6 24 10 27 9 3 -2 13 -7 22 -12 10 -6 19 -5 23 1 4 6 13 7 24 1 10 -6
23 -6 31 -1 8 5 19 5 25 0 6 -5 17 -5 25 0 7 4 24 4 37 -1 14 -5 23 -5 23 1 0
6 9 6 25 0 15 -6 27 -6 30 0 4 7 60 -5 60 -12 0 -1 10 4 22 10 14 8 24 9 28 2
4 -7 12 -7 25 0 13 7 21 7 25 0 4 -6 13 -7 23 -1 17 8 49 7 59 -3 3 -3 14 -1
24 4 12 7 20 7 24 0 4 -7 12 -7 25 0 11 6 21 6 25 1 3 -6 17 -6 35 -1 18 5 32
5 35 -1 4 -5 14 -5 25 1 13 7 21 7 25 0 4 -7 12 -7 24 0 10 5 21 7 24 4 10
-10 42 -11 59 -3 10 6 19 5 23 -1 4 -7 12 -7 25 0 13 7 21 7 25 0 4 -6 13 -7
23 -1 9 5 19 10 22 12 3 1 15 -3 27 -9 14 -8 24 -9 28 -2 4 6 13 7 24 1 10 -6
23 -6 31 -1 8 5 19 5 25 0 6 -5 17 -5 25 0 7 4 24 4 37 -1 14 -5 23 -5 23 1 0
6 9 6 25 0 15 -6 27 -6 30 0 3 6 16 5 33 -1 29 -11 29 -11 54 2 10 6 19 5 23
-1 4 -7 12 -7 25 0 13 7 21 7 25 0 4 -6 13 -7 23 -1 17 8 49 7 59 -3 3 -3 14
-1 24 4 12 7 20 7 24 0 4 -7 12 -7 25 0 11 6 21 6 25 1 3 -6 17 -6 35 -1 18 5
32 5 35 -1 4 -5 14 -5 25 1 13 7 21 7 25 0 4 -7 12 -7 24 0 10 5 21 7 24 4 10
-10 42 -11 59 -3 10 6 19 5 23 -1 4 -7 12 -7 25 0 13 7 21 7 25 0 4 -6 13 -7
23 -1 9 5 22 9 27 9 6 0 18 -4 27 -9 10 -6 19 -5 23 1 4 6 13 7 24 1 10 -6 23
-6 31 -1 8 5 19 5 25 0 6 -5 17 -5 25 0 7 4 24 4 37 -1 14 -5 23 -5 23 1 0 6
9 6 25 0 15 -6 27 -6 30 0 3 6 15 6 30 0 16 -6 25 -6 25 1 0 6 6 6 18 0 10 -6
24 -6 32 -1 8 5 18 6 23 3 13 -8 112 -7 126 1 6 4 11 3 11 -3 0 -6 11 -6 30
-1 16 5 32 5 35 0 3 -4 20 -4 39 0 18 4 40 3 49 -1 10 -6 18 -5 22 1 4 6 11 8
16 4 14 -8 103 -9 116 -1 7 4 14 3 18 -2 3 -7 15 -7 30 -1 15 6 27 6 30 0 3
-5 15 -6 29 0 12 4 29 4 36 0 8 -5 21 -5 31 0 9 5 19 7 22 4 8 -9 112 -8 126
0 6 4 11 3 11 -3 0 -6 11 -6 30 -1 16 5 32 5 35 0 3 -4 20 -4 39 0 18 4 40 3
49 -1 10 -6 18 -5 22 1 4 6 11 8 16 4 14 -8 103 -9 116 -1 7 4 14 3 18 -2 3
-7 15 -7 30 -1 15 6 27 6 30 0 3 -5 15 -6 29 0 12 4 29 4 36 0 8 -5 21 -5 31
0 9 5 19 7 22 4 8 -9 112 -8 126 0 6 4 11 3 11 -3 0 -6 11 -6 30 -1 16 5 32 5
35 0 3 -4 20 -4 39 0 18 4 40 3 49 -1 10 -6 18 -5 22 1 4 6 11 8 16 4 14 -8
103 -9 116 -1 7 4 14 3 18 -2 3 -7 15 -7 30 -1 15 6 27 6 30 0 3 -5 15 -6 29
0 12 4 29 4 36 0 8 -5 21 -5 31 0 9 5 19 7 22 4 8 -9 112 -8 126 0 6 4 11 3
11 -3 0 -6 11 -6 30 -1 16 5 32 5 35 0 3 -4 20 -4 39 0 18 4 40 3 49 -1 10 -6
18 -5 22 1 4 6 11 8 16 4 14 -8 103 -9 116 -1 7 4 14 3 18 -2 3 -7 15 -7 30
-1 15 6 27 6 30 0 3 -5 15 -6 28 -1 13 5 30 5 39 0 11 -6 19 -5 23 1 4 6 13 7
24 1 10 -6 23 -6 31 -1 8 5 19 5 25 0 6 -5 17 -5 25 0 7 4 24 4 37 -1 14 -5
23 -5 23 1 0 6 9 6 25 0 15 -6 27 -6 30 0 5 8 33 2 55 -10 3 -2 15 2 27 8 14
8 24 9 28 2 4 -7 12 -7 25 0 13 7 21 7 25 0 4 -6 13 -7 23 -1 17 8 49 7 59 -3
3 -3 14 -1 24 4 12 7 20 7 24 0 4 -7 12 -7 25 0 11 6 21 6 25 1 3 -6 17 -6 35
-1 18 5 32 5 35 -1 4 -5 14 -5 25 1 13 7 21 7 25 0 4 -7 12 -7 24 0 10 5 21 7
24 4 10 -10 42 -11 59 -3 10 6 19 5 23 -1 4 -7 12 -7 25 0 13 7 21 7 25 0 4
-6 13 -7 23 -1 9 5 19 10 22 12 3 1 15 -3 27 -9 14 -8 24 -9 28 -2 4 6 13 7
24 1 10 -6 23 -6 31 -1 8 5 19 5 25 0 6 -5 16 -6 21 -2 14 9 23 71 12 78 -5 3
-6 9 -3 14 3 4 5 41 5 81 0 154 0 228 -1 339 0 63 0 122 0 130 0 8 0 42 0 75
0 33 0 83 0 110 1 46 0 237 0 260 0 6 0 35 0 65 1 30 1 89 1 130 0 41 0 126 0
188 1 62 -2 117 -5 122 -4 7 -1573 10 -4401 10 l-4394 0 0 -795z"/>
<path d="M9597 10380 c-3 -11 -1 -20 5 -20 5 0 6 -5 3 -11 -9 -14 -9 -134 -1
-148 4 -6 3 -11 -3 -11 -6 0 -6 -11 -1 -30 5 -17 5 -30 0 -30 -5 0 -5 -12 -1
-28 5 -15 5 -37 0 -49 -5 -13 -4 -25 1 -28 6 -4 7 -13 1 -24 -5 -9 -6 -23 -2
-29 4 -7 4 -35 1 -62 -4 -28 -3 -50 1 -50 4 0 4 -13 -1 -30 -5 -17 -5 -30 0
-30 5 0 7 -6 5 -12 -9 -22 -11 -108 -4 -108 4 0 4 -13 -1 -30 -5 -17 -5 -30 0
-30 5 0 5 -13 0 -30 -5 -17 -5 -30 0 -30 5 0 7 -6 5 -12 -9 -22 -11 -108 -4
-108 4 0 4 -13 -1 -30 -5 -17 -5 -30 0 -30 5 0 5 -13 0 -30 -5 -17 -5 -30 0
-30 5 0 7 -6 5 -12 -9 -23 -11 -109 -3 -114 4 -3 3 -16 -2 -29 -6 -15 -6 -27
0 -30 6 -3 6 -15 0 -30 -5 -14 -5 -27 0 -30 5 -3 5 -18 0 -35 -5 -17 -5 -30 0
-30 5 0 6 -10 1 -22 -4 -13 -5 -35 0 -50 4 -16 4 -28 -1 -28 -5 0 -5 -13 0
-30 5 -17 5 -30 0 -30 -5 0 -5 -12 -1 -28 5 -15 5 -37 0 -49 -5 -13 -4 -25 1
-28 6 -4 7 -13 1 -24 -5 -9 -6 -23 -2 -29 4 -7 4 -35 1 -62 -4 -28 -3 -50 1
-50 4 0 4 -13 -1 -30 -5 -17 -5 -30 0 -30 5 0 7 -6 5 -12 -9 -22 -11 -108 -4
-108 4 0 4 -13 -1 -30 -5 -17 -5 -30 0 -30 5 0 5 -13 0 -30 -5 -17 -5 -30 0
-30 5 0 7 -6 5 -12 -9 -22 -11 -108 -4 -108 4 0 4 -13 -1 -30 -5 -17 -5 -30 0
-30 5 0 5 -13 0 -30 -5 -17 -5 -30 0 -30 5 0 7 -6 5 -12 -9 -23 -11 -109 -3
-114 4 -3 3 -16 -2 -29 -6 -15 -6 -27 0 -30 6 -3 6 -15 0 -30 -5 -14 -5 -27 0
-30 5 -3 5 -18 0 -35 -5 -17 -5 -30 0 -30 5 0 6 -10 1 -22 -4 -13 -5 -35 0
-50 4 -16 4 -28 -1 -28 -5 0 -5 -13 0 -30 5 -17 5 -30 0 -30 -5 0 -5 -12 -1
-28 5 -15 5 -37 0 -49 -5 -13 -4 -25 1 -28 6 -4 7 -13 1 -24 -5 -9 -6 -23 -2
-29 4 -7 4 -35 1 -62 -4 -28 -3 -50 1 -50 4 0 4 -13 -1 -30 -5 -17 -5 -30 0
-30 5 0 7 -6 5 -12 -9 -22 -11 -108 -4 -108 4 0 4 -13 -1 -30 -5 -17 -5 -30 0
-30 5 0 5 -13 0 -30 -5 -17 -5 -30 0 -30 5 0 7 -6 5 -12 -9 -22 -11 -108 -4
-108 4 0 4 -13 -1 -30 -5 -17 -5 -30 0 -30 5 0 5 -13 0 -30 -5 -17 -5 -30 0
-30 5 0 7 -6 5 -12 -9 -23 -11 -109 -3 -114 4 -3 3 -16 -2 -29 -6 -15 -6 -27
0 -30 6 -3 6 -15 0 -30 -5 -14 -5 -27 0 -30 5 -3 5 -18 0 -35 -5 -17 -5 -30 0
-30 5 0 6 -10 1 -22 -4 -13 -5 -35 0 -50 4 -16 4 -28 -1 -28 -5 0 -5 -13 0
-30 5 -17 5 -30 0 -30 -5 0 -5 -12 -1 -28 5 -15 5 -37 0 -49 -5 -13 -4 -25 1
-28 6 -4 7 -13 1 -24 -5 -9 -6 -23 -2 -29 4 -7 4 -35 1 -62 -4 -28 -3 -50 1
-50 4 0 4 -13 -1 -30 -5 -17 -5 -30 0 -30 5 0 7 -6 5 -12 -9 -22 -11 -108 -4
-108 4 0 4 -13 -1 -30 -5 -17 -5 -30 0 -30 5 0 5 -13 0 -30 -5 -17 -5 -30 0
-30 5 0 7 -6 5 -12 -9 -22 -11 -108 -4 -108 4 0 4 -13 -1 -30 -5 -17 -5 -30 0
-30 5 0 5 -13 0 -30 -5 -17 -5 -30 0 -30 5 0 7 -6 5 -12 -9 -23 -11 -109 -3
-114 4 -3 3 -16 -2 -29 -6 -15 -6 -27 0 -30 6 -3 6 -15 0 -30 -5 -14 -5 -27 0
-30 5 -3 5 -18 0 -35 -5 -17 -5 -30 0 -30 5 0 6 -10 1 -22 -4 -13 -5 -35 0
-50 4 -16 4 -28 -1 -28 -5 0 -5 -13 0 -30 5 -17 5 -30 0 -30 -5 0 -5 -12 -1
-28 5 -15 5 -37 0 -49 -5 -13 -4 -25 1 -28 6 -4 7 -13 1 -24 -5 -9 -6 -23 -2
-29 4 -7 4 -35 1 -62 -4 -28 -3 -50 1 -50 4 0 4 -13 -1 -30 -5 -17 -5 -30 0
-30 5 0 7 -6 5 -12 -9 -22 -11 -108 -4 -108 4 0 4 -13 -1 -30 -5 -17 -5 -30 0
-30 5 0 5 -13 0 -30 -5 -17 -5 -30 0 -30 5 0 7 -6 5 -13 -9 -21 -11 -107 -4
-107 4 0 4 -13 -1 -30 -5 -17 -5 -30 0 -30 5 0 5 -13 0 -30 -5 -17 -5 -30 0
-30 5 0 7 -6 5 -12 -9 -23 -11 -109 -3 -114 4 -3 3 -16 -2 -29 -6 -15 -6 -27
0 -30 6 -3 6 -15 0 -30 -5 -14 -5 -27 0 -30 5 -3 5 -18 0 -35 -5 -17 -5 -30 0
-30 5 0 6 -10 1 -22 -4 -13 -5 -35 0 -50 4 -16 4 -28 -1 -28 -5 0 -5 -13 0
-30 5 -17 5 -30 0 -30 -5 0 -5 -12 -1 -28 5 -15 5 -37 0 -49 -5 -13 -4 -25 1
-28 6 -4 7 -13 1 -24 -5 -9 -6 -23 -2 -29 4 -7 4 -35 1 -62 -4 -28 -3 -50 1
-50 4 0 4 -13 -1 -30 -5 -17 -5 -30 0 -30 5 0 7 -6 5 -13 -9 -21 -11 -107 -4
-107 4 0 4 -13 -1 -30 -5 -17 -5 -30 0 -30 5 0 5 -13 0 -30 -5 -17 -5 -30 0
-30 5 0 7 -6 5 -12 -9 -22 -11 -108 -4 -108 4 0 4 -13 -1 -30 -5 -17 -5 -30 0
-30 5 0 5 -13 0 -30 -5 -17 -5 -30 0 -30 5 0 7 -6 5 -12 -9 -23 -11 -109 -3
-114 4 -3 3 -16 -2 -29 -6 -15 -6 -27 0 -30 6 -3 6 -15 0 -30 -5 -14 -5 -27 0
-30 5 -3 5 -18 0 -35 -5 -17 -5 -30 0 -30 5 0 6 -10 1 -22 -4 -13 -5 -35 0
-50 4 -16 4 -28 -1 -28 -5 0 -5 -13 0 -30 5 -17 5 -30 0 -30 -5 0 -5 -12 -1
-28 5 -15 5 -37 0 -49 -5 -13 -4 -25 1 -28 6 -4 7 -13 1 -24 -5 -9 -6 -23 -2
-29 4 -7 4 -35 1 -62 -4 -28 -3 -50 1 -50 4 0 4 -13 -1 -30 -5 -17 -5 -30 0
-30 5 0 7 -6 5 -12 -9 -22 -11 -108 -4 -108 4 0 4 -13 -1 -30 -5 -17 -5 -30 0
-30 5 0 5 -13 0 -30 -5 -17 -5 -30 0 -30 5 0 7 -6 5 -12 -9 -22 -11 -108 -4
-108 4 0 4 -13 -1 -30 -5 -17 -5 -30 0 -30 5 0 5 -13 0 -30 -5 -17 -5 -30 0
-30 5 0 7 -6 5 -12 -9 -23 -11 -109 -3 -114 4 -3 3 -16 -2 -29 -6 -15 -6 -27
0 -30 6 -3 6 -15 0 -30 -5 -14 -5 -27 0 -30 5 -3 5 -18 0 -35 -5 -17 -5 -30 0
-30 5 0 6 -10 1 -22 -4 -13 -5 -35 0 -50 4 -16 4 -28 -1 -28 -5 0 -5 -13 0
-30 5 -17 5 -30 0 -30 -5 0 -5 -12 -1 -28 5 -15 5 -37 0 -49 -5 -13 -4 -25 1
-28 6 -4 7 -13 1 -24 -5 -9 -6 -23 -2 -30 5 -7 5 -30 1 -51 -4 -21 -4 -44 0
-51 4 -6 5 -23 1 -38 -4 -14 -5 -36 -3 -48 l3 -23 800 0 799 0 0 4800 0 4800
-799 0 c-790 0 -799 0 -804 -20z"/>
<path d="M217 8004 c-3 -3 -52 -6 -109 -7 l-103 -2 -3 -792 c-2 -776 -2 -792
17 -803 13 -7 22 -7 26 0 4 6 13 7 24 1 10 -6 23 -6 31 -1 8 5 19 5 25 0 6 -5
17 -5 25 0 7 4 24 4 36 0 14 -6 26 -5 29 0 4 7 13 6 25 0 13 -7 21 -7 25 0 4
6 11 8 16 5 14 -9 89 -12 89 -3 0 4 6 5 13 2 23 -8 97 -10 97 -2 0 4 11 3 25
-2 16 -6 25 -6 25 0 0 6 9 6 25 0 15 -6 27 -6 30 0 3 6 15 6 30 0 16 -6 25 -6
25 1 0 6 7 6 19 -1 13 -7 22 -7 26 0 4 6 13 7 24 1 10 -6 23 -6 31 -1 8 5 19
5 25 0 6 -5 17 -5 25 0 7 4 24 4 36 0 14 -6 26 -5 29 0 4 7 13 6 25 0 13 -7
21 -7 25 0 4 6 11 8 16 5 14 -9 89 -12 89 -3 0 4 6 5 13 2 23 -8 97 -10 97 -2
0 4 11 3 25 -2 16 -6 25 -6 25 0 0 6 9 6 25 0 15 -6 27 -6 30 0 3 6 15 6 30 0
16 -6 25 -6 25 1 0 6 7 6 19 -1 13 -7 22 -7 26 0 4 6 13 7 24 1 10 -6 23 -6
31 -1 8 5 19 5 25 0 6 -5 17 -5 25 0 7 4 24 4 36 0 14 -6 26 -5 29 0 4 7 13 6
25 0 13 -7 21 -7 25 0 4 6 11 8 16 5 14 -9 89 -12 89 -3 0 4 6 5 13 2 23 -8
97 -10 97 -2 0 4 11 3 25 -2 16 -6 25 -6 25 0 0 6 9 6 25 0 15 -6 27 -6 30 0
3 6 15 6 30 0 16 -6 25 -6 25 1 0 6 7 6 19 -1 13 -7 22 -7 26 0 4 6 13 7 24 1
10 -6 23 -6 31 -1 8 5 19 5 25 0 6 -5 17 -5 25 0 7 4 24 4 36 0 14 -6 26 -5
29 0 4 7 13 6 25 0 13 -7 21 -7 25 0 4 6 11 8 16 5 14 -9 89 -12 89 -3 0 4 6
5 13 2 23 -8 97 -10 97 -2 0 4 11 3 25 -2 16 -6 25 -6 25 0 0 6 9 6 25 0 15
-6 27 -6 30 0 3 6 15 6 30 0 16 -6 25 -6 25 1 0 6 7 6 19 -1 13 -7 22 -7 26 0
4 6 13 7 24 1 10 -6 23 -6 31 -1 8 5 19 5 25 0 6 -5 17 -5 25 0 7 4 24 4 36 0
14 -6 26 -5 29 0 4 7 13 6 25 0 13 -7 21 -7 25 0 4 6 11 8 16 5 14 -9 89 -12
89 -3 0 4 6 5 13 2 23 -8 97 -10 97 -2 0 4 11 3 25 -2 16 -6 25 -6 25 0 0 6 9
6 25 0 15 -6 27 -6 30 0 3 6 15 6 30 0 16 -6 25 -6 25 1 0 6 7 6 19 -1 13 -7
22 -7 26 0 4 6 13 7 24 1 10 -6 23 -6 31 -1 8 5 19 5 25 0 6 -5 17 -5 25 0 7
4 24 4 36 0 14 -6 26 -5 29 0 4 7 13 6 25 0 13 -7 21 -7 25 0 4 6 11 8 16 5
14 -9 89 -12 89 -3 0 4 6 5 13 2 23 -8 97 -10 97 -2 0 4 11 3 25 -2 16 -6 25
-6 25 0 0 6 9 6 25 0 15 -6 27 -6 30 0 3 6 15 6 30 0 16 -6 25 -6 25 1 0 6 7
6 19 -1 13 -7 22 -7 26 0 4 6 13 7 24 1 10 -6 23 -6 31 -1 8 5 19 5 25 0 6 -5
17 -5 25 0 7 4 24 4 36 0 14 -6 26 -5 29 0 4 7 13 6 25 0 13 -7 21 -7 25 0 4
6 11 8 16 5 14 -9 89 -12 89 -3 0 4 6 5 13 2 23 -8 97 -10 97 -2 0 4 11 3 25
-2 16 -6 25 -6 25 0 0 6 9 6 25 0 15 -6 27 -6 30 0 3 6 15 6 30 0 16 -6 25 -6
25 1 0 6 7 6 19 -1 13 -7 22 -7 26 0 4 6 13 7 24 1 10 -6 23 -6 31 -1 8 5 19
5 25 0 6 -5 17 -5 25 0 7 4 24 4 36 0 14 -6 26 -5 29 0 4 7 13 6 25 0 12 -6
21 -7 25 0 10 16 50 -6 51 -28 1 -11 4 -27 7 -36 4 -9 3 -16 -2 -16 -5 0 -5
-18 -1 -40 4 -22 4 -40 0 -40 -4 0 -4 -20 0 -45 4 -25 4 -45 1 -45 -3 0 -5
-24 -4 -52 1 -29 2 -64 2 -78 0 -14 1 -41 2 -60 0 -19 1 -41 0 -47 -2 -23 -2
-37 0 -120 0 -45 -2 -86 -5 -91 -4 -6 -2 -13 3 -16 5 -3 5 -21 1 -41 -4 -19
-4 -37 0 -40 4 -3 4 -21 0 -40 -4 -19 -4 -37 0 -40 4 -3 5 -20 1 -38 -5 -18
-6 -41 -5 -52 3 -20 5 -51 4 -90 0 -11 0 -44 0 -73 0 -29 -2 -57 -5 -62 -3 -6
-2 -10 3 -10 5 0 6 -19 3 -42 -4 -24 -4 -60 0 -81 3 -21 2 -40 -3 -43 -4 -3
-6 -10 -3 -15 4 -5 6 -30 5 -56 0 -27 -1 -57 0 -68 0 -11 0 -48 1 -82 0 -35
-2 -67 -5 -72 -4 -5 -2 -12 3 -15 5 -3 5 -21 1 -41 -4 -19 -4 -37 0 -40 4 -3
4 -21 0 -40 -4 -19 -4 -37 0 -40 4 -3 5 -20 1 -37 -7 -33 -5 -92 4 -115 2 -7
1 -13 -4 -13 -5 0 -5 -18 -1 -40 4 -22 4 -40 0 -40 -4 0 -4 -20 0 -45 4 -25 4
-45 1 -45 -3 0 -5 -24 -4 -52 1 -29 2 -64 2 -78 0 -14 1 -41 2 -60 0 -19 1
-41 0 -47 -2 -23 -2 -37 0 -120 0 -45 -2 -86 -5 -91 -4 -6 -2 -13 3 -16 5 -3
5 -21 1 -41 -4 -19 -4 -37 0 -40 4 -3 4 -21 0 -40 -4 -19 -4 -37 0 -40 4 -3 5
-20 1 -37 -9 -41 -9 -45 -1 -84 4 -18 4 -37 0 -44 -4 -7 -4 -27 0 -46 4 -19 5
-34 1 -34 -9 0 -2 -143 8 -153 4 -4 51 -8 102 -7 52 0 171 0 264 0 94 -1 177
-1 185 -1 8 0 65 0 125 0 61 0 115 -1 120 -1 6 0 93 1 195 1 102 0 205 1 230
2 25 1 51 1 58 1 87 -3 305 -1 311 3 5 3 5 21 1 40 -5 23 -4 35 3 35 8 0 8 3
0 11 -7 7 -8 23 -3 45 4 19 4 36 0 39 -4 2 -4 23 0 45 4 22 4 43 0 45 -5 3 -5
17 -1 33 4 15 4 44 1 64 -4 21 -4 38 0 38 4 0 4 20 0 45 -4 25 -4 45 -1 45 7
0 6 78 -1 86 -3 3 -2 21 2 40 4 19 4 36 0 39 -4 2 -4 23 0 45 4 22 4 43 0 45
-5 3 -5 17 -1 33 4 15 4 44 1 64 -4 21 -4 38 0 38 4 0 4 20 0 45 -4 25 -4 45
-1 45 7 0 6 78 -1 86 -3 3 -2 21 2 40 4 19 4 36 0 39 -4 2 -4 23 0 45 4 22 4
42 0 45 -4 3 -4 22 0 42 3 21 3 50 -1 64 -3 15 -3 32 1 39 4 7 4 27 0 45 -4
18 -4 38 0 45 4 6 4 29 0 51 -4 21 -4 39 -1 39 4 0 7 12 6 28 0 19 4 26 15 23
24 -5 130 -4 137 2 3 3 16 2 29 -3 14 -6 26 -6 29 0 4 6 13 7 24 1 10 -6 23
-6 31 -1 8 5 21 5 31 -1 11 -6 20 -5 24 1 4 7 12 7 25 0 13 -7 21 -7 25 0 4 6
11 8 17 4 13 -8 133 -8 147 0 6 4 11 3 11 -3 0 -7 8 -7 25 -1 16 6 25 6 25 0
0 -6 9 -6 23 -1 13 5 30 5 37 1 8 -5 19 -5 25 0 6 5 17 5 25 0 8 -5 21 -5 31
1 11 6 20 5 24 -1 3 -5 13 -6 22 -3 13 5 15 0 11 -26 -3 -17 -1 -34 3 -37 4
-2 4 -18 -1 -34 -5 -17 -5 -30 0 -30 5 0 5 -13 0 -29 -4 -15 -4 -34 0 -42 5
-7 5 -20 0 -29 -5 -9 -5 -22 -1 -28 4 -7 5 -32 1 -56 -3 -24 -3 -51 0 -62 4
-10 4 -31 -1 -46 -4 -16 -4 -28 1 -28 5 0 5 -13 0 -29 -4 -15 -4 -34 0 -42 5
-7 5 -20 0 -29 -5 -9 -5 -22 -1 -28 4 -7 5 -35 1 -62 -4 -27 -3 -55 1 -62 4
-6 4 -19 -1 -28 -5 -9 -5 -22 0 -29 4 -8 4 -27 0 -42 -5 -16 -5 -29 0 -29 5 0
5 -13 0 -29 -4 -16 -6 -32 -3 -34 7 -8 9 -117 1 -117 -4 0 -3 -13 2 -29 4 -16
6 -32 3 -35 -8 -7 -7 -101 0 -113 3 -5 2 -15 -3 -23 -4 -7 -5 -23 0 -35 4 -11
4 -28 -1 -37 -6 -10 -6 -19 0 -22 6 -4 6 -18 1 -35 -4 -16 -6 -32 -3 -35 8 -8
9 -116 1 -116 -4 0 -3 -13 2 -29 4 -16 6 -32 3 -35 -8 -7 -7 -105 1 -113 3 -3
1 -13 -4 -22 -5 -10 -5 -23 0 -30 4 -8 4 -27 0 -42 -5 -16 -5 -29 0 -29 5 0 5
-12 1 -27 -5 -16 -5 -37 -1 -47 4 -11 4 -36 0 -56 -4 -20 -4 -45 0 -56 4 -10
4 -31 -1 -46 -4 -16 -4 -28 1 -28 5 0 5 -13 0 -29 -4 -15 -4 -34 0 -42 5 -7 5
-20 0 -29 -5 -9 -5 -22 -1 -28 4 -7 5 -32 1 -56 -3 -24 -3 -51 0 -62 4 -10 4
-31 -1 -46 -4 -16 -4 -28 1 -28 5 0 5 -13 0 -29 -4 -15 -4 -34 0 -42 5 -7 5
-20 0 -29 -5 -9 -5 -22 -1 -28 4 -7 5 -35 1 -62 -4 -27 -3 -55 1 -62 4 -6 4
-19 -1 -28 -5 -9 -5 -22 0 -29 4 -8 4 -27 0 -42 -5 -16 -5 -29 0 -29 5 0 5
-13 0 -29 -4 -16 -6 -32 -3 -34 7 -8 9 -117 1 -117 -4 0 -3 -13 2 -29 4 -16 6
-32 3 -35 -8 -7 -7 -101 0 -113 3 -5 2 -15 -3 -23 -4 -7 -5 -23 0 -35 4 -11 4
-28 -1 -37 -6 -10 -6 -19 0 -22 6 -4 6 -18 1 -35 -4 -16 -6 -32 -3 -35 8 -8 9
-116 1 -116 -4 0 -3 -13 2 -29 4 -16 6 -32 3 -35 -8 -7 -7 -105 1 -113 3 -3 1
-13 -4 -22 -5 -10 -5 -23 0 -30 4 -8 4 -27 0 -42 -5 -16 -5 -29 0 -29 5 0 5
-12 1 -27 -5 -16 -5 -37 -1 -48 4 -11 4 -33 0 -50 -3 -16 -3 -41 0 -55 4 -14
3 -32 -1 -41 -4 -8 -4 -21 1 -29 4 -7 6 -19 3 -27 -4 -11 130 -13 796 -13
l801 0 0 123 c0 97 0 236 -1 322 0 6 0 35 0 65 1 69 1 172 0 320 0 63 0 122 0
130 0 8 0 42 0 75 0 33 0 83 0 110 1 46 0 237 0 260 0 6 0 35 0 65 1 69 1 172
0 320 0 63 0 122 0 130 0 8 0 42 0 75 0 33 0 83 0 110 1 46 0 237 0 260 0 6 0
35 0 65 1 87 1 200 0 270 0 36 -1 72 0 80 0 13 0 200 0 225 0 6 0 35 0 65 1
69 1 172 0 320 0 63 0 122 0 130 0 8 0 42 0 75 0 33 0 83 0 110 0 41 0 222 0
260 0 6 0 191 1 413 1 221 -2 406 -5 412 -4 6 -92 10 -228 10 -122 0 -253 0
-292 0 -38 1 -164 1 -280 1 -115 0 -214 0 -220 0 -5 0 -217 0 -470 0 -253 0
-502 0 -553 2 -50 1 -92 0 -92 -3 0 -5 -85 -4 -210 1 l-55 2 0 44 c0 23 3 43
6 43 4 0 3 17 0 38 -4 20 -4 52 0 70 3 18 3 34 -1 37 -4 3 -4 21 0 40 4 19 4
37 0 40 -4 3 -4 21 0 40 4 19 4 37 0 40 -4 3 -4 21 0 40 4 19 4 37 0 40 -4 3
-4 21 0 40 4 19 4 37 0 40 -4 3 -4 21 0 40 4 19 4 37 0 40 -4 3 -4 21 0 40 4
19 4 37 0 40 -4 3 -4 20 0 39 4 19 6 37 3 39 -2 3 5 7 17 10 11 3 20 1 20 -4
0 -5 11 -4 25 1 15 6 25 6 25 0 0 -5 12 -5 30 0 18 5 30 5 30 0 0 -6 10 -6 25
0 15 6 25 6 25 0 0 -5 12 -5 29 0 16 4 32 6 35 2 8 -7 69 -7 89 1 9 3 19 2 22
-3 4 -7 13 -6 25 0 13 7 21 7 25 0 4 -6 13 -7 24 -1 10 6 23 6 31 1 8 -5 21
-5 31 1 11 6 20 5 24 -1 4 -7 12 -7 25 0 13 7 21 7 25 0 4 -6 13 -7 23 -1 9 4
26 6 37 4 11 -2 26 -4 33 -4 23 1 42 1 126 0 46 -1 89 2 95 5 6 4 11 3 11 -3
0 -6 11 -7 28 -2 15 5 37 5 49 0 13 -5 25 -4 28 1 4 7 13 6 25 0 13 -7 21 -7
25 0 4 6 11 7 17 4 14 -9 124 -8 138 1 5 3 10 3 10 -2 0 -9 73 -8 89 1 5 4 12
2 16 -4 4 -7 12 -7 25 0 13 7 21 7 25 0 4 -6 13 -7 24 -1 10 6 23 6 31 1 8 -5
21 -5 31 1 11 6 20 5 24 -1 4 -7 12 -7 25 0 13 7 21 7 25 0 4 -7 14 -6 28 2
12 6 22 11 22 11 0 0 10 -5 22 -11 13 -8 24 -8 28 -2 3 5 12 7 19 4 21 -8 156
-10 156 -2 0 3 12 3 27 -1 15 -4 46 -4 70 -1 24 4 43 3 43 -1 0 -5 11 -4 25 1
15 6 25 6 25 0 0 -5 12 -5 30 0 18 5 30 5 30 0 0 -6 10 -6 25 0 15 6 25 6 25
0 0 -5 12 -5 29 0 16 4 32 6 35 2 8 -7 74 -7 82 1 4 3 15 2 25 -3 12 -7 20 -7
24 0 4 7 12 7 25 0 12 -6 21 -7 25 0 3 5 12 7 20 3 14 -5 21 14 15 42 -1 6 -1
51 -1 100 1 50 1 142 0 205 0 63 0 122 0 130 0 8 0 42 0 75 0 33 0 83 0 110 1
46 0 237 0 260 0 6 0 35 0 65 1 69 1 172 0 320 0 63 0 122 0 130 1 20 -1 132
-2 147 0 11 -36 14 -162 14 -11 0 -67 0 -125 0 -58 1 -114 0 -125 -1 -28 -2
-18 -2 -255 0 -118 0 -219 0 -225 0 -5 0 -109 0 -230 1 -121 0 -231 0 -245 -1
-14 -1 -29 -2 -35 -2 -35 1 -463 1 -475 1 -8 0 -53 0 -100 0 -47 0 -93 0 -102
0 -10 0 -83 0 -163 0 -80 0 -151 -1 -157 -1 -7 0 -69 0 -138 1 -69 0 -132 0
-140 0 -8 0 -116 0 -240 0 -124 0 -232 0 -240 0 -8 0 -53 0 -100 0 -47 0 -92
0 -100 0 -24 -1 -454 1 -595 2 -71 0 -134 0 -140 0 -5 0 -62 0 -125 -1 -111
-1 -344 -2 -385 -1 -11 0 -58 0 -105 0 -47 -1 -92 -1 -100 -1 -8 1 -71 1 -140
1 -69 -1 -132 0 -140 0 -8 0 -53 0 -100 0 -47 -1 -89 -1 -95 -1 -5 1 -111 1
-235 1 -124 0 -283 1 -355 1 -71 1 -137 1 -145 1 -8 0 -80 0 -160 0 -80 0
-152 0 -160 0 -11 0 -247 0 -315 0 -5 0 -62 0 -125 -1 -111 -1 -344 -2 -385
-1 -11 0 -58 0 -105 0 -47 -1 -92 -1 -100 -1 -8 1 -71 1 -140 1 -69 -1 -132 0
-140 0 -8 0 -53 0 -100 0 -47 -1 -89 -1 -95 -1 -10 1 -340 1 -588 1 -71 1
-132 3 -136 6 -5 2 -11 2 -14 -1z"/>
<path d="M216 5602 c-2 -1 -51 -3 -110 -3 l-106 0 0 -2400 0 -2399 799 0 c790
0 799 0 804 20 3 11 1 20 -3 20 -5 0 -5 14 0 30 5 17 6 30 2 30 -4 0 -7 23 -7
50 0 28 3 50 7 50 4 0 3 14 -2 30 -5 18 -5 30 0 30 6 0 6 10 1 23 -5 12 -5 31
-1 42 4 11 4 28 -1 37 -6 10 -5 19 1 23 6 4 6 15 0 30 -5 14 -6 25 -2 25 8 0
7 88 -1 97 -3 3 -2 16 3 29 6 14 6 26 0 29 -6 4 -7 13 -1 24 6 10 6 23 1 31
-5 8 -5 21 0 30 5 9 5 22 0 30 -5 8 -5 21 0 30 5 9 5 22 0 30 -4 7 -4 24 0 36
6 14 5 26 0 29 -6 4 -7 13 -1 24 6 10 6 23 1 31 -5 8 -5 21 0 30 5 9 5 22 0
30 -5 8 -5 21 0 30 5 9 5 22 0 30 -5 8 -5 21 0 31 5 9 7 19 4 22 -9 8 -10 97
-2 97 4 0 3 14 -2 30 -5 18 -5 30 0 30 6 0 6 10 1 23 -5 12 -5 31 -1 42 4 11
4 28 -1 37 -6 10 -5 19 1 23 6 4 6 15 0 30 -5 14 -6 25 -1 25 5 0 5 18 1 40
-4 22 -4 40 1 40 4 0 4 14 -1 30 -5 18 -5 30 0 30 6 0 6 10 1 23 -5 12 -5 31
-1 42 4 11 4 28 -1 37 -6 10 -5 19 1 23 6 4 6 15 0 30 -5 14 -6 25 -2 25 8 0
7 88 -1 97 -3 3 -2 16 3 29 6 14 6 26 0 29 -6 4 -7 13 -1 24 6 10 6 23 1 31
-5 8 -5 21 0 30 5 9 5 22 0 30 -5 8 -5 21 0 30 5 9 5 22 0 30 -4 7 -4 24 0 36
6 14 5 26 0 29 -6 4 -7 13 -1 24 6 10 6 23 1 31 -5 8 -5 21 0 30 5 9 5 22 0
30 -5 8 -5 21 0 30 5 9 5 22 0 30 -5 8 -5 21 0 31 5 9 7 19 4 22 -9 8 -10 97
-2 97 4 0 3 14 -2 30 -5 18 -5 30 0 30 6 0 6 10 1 23 -5 12 -5 31 -1 42 4 11
4 28 -1 37 -6 10 -5 19 1 23 6 4 6 15 0 30 -5 14 -6 25 -2 25 8 0 7 88 -1 97
-3 3 -2 16 3 29 6 15 6 24 0 24 -5 0 -6 9 -1 22 4 13 5 35 0 50 -4 16 -4 28 1
28 5 0 5 13 0 30 -5 17 -5 30 0 30 5 0 5 13 0 30 -5 17 -5 32 0 35 5 3 5 16 0
30 -6 16 -6 25 0 25 6 0 6 9 0 24 -5 13 -6 27 -3 30 8 8 9 76 1 76 -4 0 -3 14
2 30 5 17 5 30 1 30 -4 0 -5 22 -1 50 3 27 3 55 -1 62 -4 6 -3 22 2 35 5 14 5
23 -1 23 -5 0 -6 9 -1 22 4 13 5 35 0 50 -4 16 -4 28 1 28 5 0 5 13 0 30 -5
17 -5 30 0 30 5 0 5 13 0 30 -5 17 -5 32 0 35 5 3 5 16 0 30 -6 16 -6 25 0 25
6 0 6 9 0 24 -5 13 -6 27 -3 30 8 8 9 76 1 76 -4 0 -3 14 2 30 5 17 5 30 1 30
-4 0 -4 27 -1 60 3 33 3 60 -1 60 -4 0 -4 14 1 30 5 17 6 30 2 30 -8 0 -7 68
1 76 3 3 2 17 -3 30 -6 14 -6 24 0 24 5 0 5 12 0 30 -5 17 -5 30 0 30 5 0 5
13 0 30 -5 17 -5 30 0 30 5 0 5 13 0 30 -5 17 -5 30 0 30 5 0 5 12 1 28 -5 15
-5 37 0 49 5 13 4 25 -1 28 -6 4 -7 13 -1 24 6 10 6 23 1 31 -5 8 -7 18 -4 22
9 14 7 169 -2 178 -11 11 -32 11 -354 11 -140 0 -284 0 -320 0 -36 0 -180 0
-320 -1 -140 0 -284 1 -318 3 -35 1 -65 1 -66 -1z"/>
<path d="M2538 5605 c-2 -2 -34 -5 -71 -6 l-66 -2 -1 -126 c0 -101 0 -213 1
-316 0 -5 0 -35 0 -65 -1 -81 -1 -192 0 -305 1 -55 1 -106 0 -112 -2 -29 -2
-43 -2 -158 1 -110 2 -296 2 -320 0 -5 0 -35 0 -65 -1 -81 -1 -192 0 -305 1
-55 1 -106 0 -112 -2 -23 -2 -47 -2 -148 0 -55 0 -104 0 -110 0 -5 0 -37 0
-70 0 -33 0 -67 0 -75 0 -8 0 -46 0 -85 0 -38 0 -77 0 -85 0 -8 0 -42 0 -75 0
-33 0 -67 0 -75 0 -8 0 -46 0 -85 0 -38 0 -77 0 -85 0 -8 0 -42 0 -75 0 -33 0
-67 0 -75 0 -8 0 -46 0 -85 0 -38 0 -77 0 -85 0 -8 0 -42 0 -75 0 -33 0 -67 0
-75 0 -8 0 -46 0 -85 0 -38 0 -77 0 -85 0 -8 0 -42 0 -75 0 -33 0 -67 0 -75 0
-8 0 -46 0 -85 0 -38 0 -77 0 -85 0 -8 0 -42 0 -75 0 -33 0 -67 0 -75 0 -8 0
-46 0 -85 0 -38 0 -77 0 -85 0 -8 0 -42 0 -75 0 -33 0 -67 0 -75 0 -8 0 -46 0
-85 0 -38 0 -77 0 -85 -1 -33 0 -148 2 -190 1 -25 1 -51 0 -57 -2 -26 -2 -39
-1 -105 l2 -68 1999 0 c1897 0 1999 1 2000 18 1 9 0 22 -1 27 -5 22 -1 165 4
174 4 5 2 12 -3 15 -5 3 -5 21 -1 41 4 19 4 37 0 40 -4 3 -4 21 0 40 4 19 4
37 0 40 -4 3 -4 21 0 40 4 19 4 37 0 40 -4 3 -4 21 0 40 4 19 4 37 0 40 -4 3
-4 21 0 40 4 19 4 37 0 40 -4 3 -4 21 0 40 4 19 4 37 0 40 -4 3 -4 21 0 40 4
19 4 37 0 40 -4 3 -4 21 0 40 4 19 4 37 0 40 -4 3 -4 21 0 40 4 19 4 37 0 40
-4 3 -4 21 0 40 4 19 4 37 0 40 -4 3 -4 21 0 40 4 19 4 37 0 40 -4 3 -4 21 0
40 4 19 4 37 0 40 -4 3 -4 21 0 40 4 19 4 37 0 40 -4 3 -4 21 0 40 4 19 4 37
0 40 -4 3 -5 20 -1 37 7 33 5 92 -4 115 -2 7 0 15 5 18 5 3 6 15 1 28 -5 12
-8 26 -7 31 2 13 -42 27 -49 15 -4 -5 -11 -7 -16 -3 -14 8 -113 9 -127 0 -6
-3 -13 -2 -17 3 -3 7 -15 7 -29 1 -13 -5 -27 -6 -30 -3 -8 9 -152 7 -166 -2
-5 -3 -10 -2 -10 4 0 6 -11 6 -28 1 -16 -4 -36 -4 -45 1 -10 6 -18 5 -22 -1
-4 -7 -12 -7 -24 0 -10 5 -21 6 -25 3 -3 -3 -22 -6 -41 -6 -19 0 -38 3 -41 6
-4 3 -15 2 -25 -3 -12 -7 -20 -7 -24 0 -4 7 -12 7 -24 0 -10 -5 -21 -7 -24 -4
-10 10 -42 11 -59 3 -10 -6 -19 -5 -23 1 -4 7 -12 7 -25 0 -13 -7 -21 -7 -25
0 -4 6 -13 7 -23 1 -9 -4 -26 -6 -37 -4 -11 2 -26 4 -32 4 -28 -2 -40 -2 -94
0 -31 1 -61 -1 -68 -5 -6 -4 -11 -3 -11 3 0 6 -11 6 -30 1 -17 -5 -32 -5 -35
0 -3 5 -15 6 -28 1 -13 -5 -30 -5 -39 0 -11 6 -19 5 -23 -1 -4 -6 -13 -7 -24
-1 -10 6 -23 6 -31 1 -8 -5 -19 -5 -25 0 -6 5 -17 5 -25 0 -7 -4 -24 -4 -37 1
-14 5 -23 5 -23 -1 0 -6 -9 -6 -25 0 -15 6 -27 6 -30 0 -3 -6 -15 -6 -30 0
-16 6 -25 6 -25 -1 0 -6 -7 -6 -19 1 -13 7 -22 7 -26 0 -4 -6 -13 -7 -24 -1
-10 6 -23 6 -31 1 -8 -5 -19 -5 -25 0 -6 5 -17 5 -25 0 -7 -4 -24 -4 -37 1
-14 5 -23 5 -23 -1 0 -6 -9 -6 -25 0 -15 6 -27 6 -30 0 -3 -6 -15 -6 -30 0
-16 6 -25 6 -25 -1 0 -6 -7 -6 -19 1 -13 7 -22 7 -26 0 -4 -6 -13 -7 -24 -1
-10 6 -23 6 -31 1 -8 -5 -19 -5 -25 0 -6 5 -17 5 -25 0 -7 -4 -24 -4 -37 1
-14 5 -23 5 -23 -1 0 -6 -9 -6 -25 0 -15 6 -27 6 -30 0 -3 -6 -15 -6 -30 0
-16 6 -25 6 -25 -1 0 -6 -7 -6 -19 1 -13 7 -22 7 -26 0 -4 -6 -12 -7 -23 -1
-9 5 -26 5 -39 0 -14 -5 -23 -5 -23 1 0 5 -7 7 -17 3 -13 -5 -15 -2 -11 15 4
12 2 22 -2 22 -5 0 -5 14 0 30 5 17 5 30 0 30 -5 0 -5 12 -1 28 7 29 6 90 -2
99 -3 2 -1 18 3 34 5 16 5 29 0 29 -5 0 -5 13 0 30 5 17 5 30 0 30 -5 0 -5 13
0 29 4 16 6 32 3 35 -8 8 -9 116 -1 116 4 0 3 13 -2 29 -4 16 -6 32 -3 35 8 7
7 101 0 113 -3 5 -2 15 3 23 4 7 5 23 0 35 -4 11 -4 28 1 37 6 10 6 19 0 22
-6 4 -6 18 -1 35 4 16 6 32 3 35 -8 8 -9 116 -1 116 4 0 3 13 -2 29 -4 16 -6
32 -3 35 8 7 7 105 -1 113 -3 3 -1 13 4 22 5 10 5 23 0 30 -4 8 -4 27 0 42 5
16 5 29 0 29 -5 0 -5 12 -1 28 5 15 5 36 1 46 -3 11 -3 38 0 62 4 24 3 49 -1
56 -4 6 -4 19 1 28 5 9 5 22 0 29 -4 8 -4 27 0 42 5 16 5 29 0 29 -5 0 -5 12
-1 28 5 15 5 36 1 46 -3 11 -3 38 0 62 4 24 3 49 -1 56 -4 6 -4 19 1 28 5 9 5
22 0 29 -4 8 -4 27 0 42 5 16 5 29 0 29 -5 0 -5 12 -1 28 5 15 5 36 1 46 -3
11 -3 38 0 62 4 24 3 49 -1 56 -4 6 -4 19 1 28 5 9 5 22 0 29 -4 8 -4 27 0 42
5 16 5 29 0 29 -5 0 -5 13 0 29 4 16 6 32 3 34 -7 8 -9 117 -1 117 4 0 3 13
-2 29 -4 16 -6 32 -3 35 8 7 7 101 0 113 -3 5 -2 15 3 23 4 7 5 23 0 35 -4 11
-4 28 1 37 6 10 6 19 0 22 -6 4 -6 18 -1 35 4 16 6 32 3 35 -8 8 -9 116 -1
116 4 0 3 13 -2 29 -4 16 -5 32 -2 36 7 7 5 105 -2 112 -3 3 -1 16 4 29 6 14
6 26 0 29 -5 3 -7 12 -4 20 5 12 -29 14 -223 15 -272 1 -286 1 -613 1 -140 0
-284 0 -320 0 -36 0 -113 -1 -173 -1 -59 -1 -111 1 -116 4 -4 3 -10 4 -13 1z"/>
</g>
</svg>
